<?xml version="1.0" standalone="no"?><svg xmlns="http://www.w3.org/2000/svg" viewBox="0 0 1440 320"><path fill="#0099ff" fill-opacity="1" d="M0,160L20,170.7C40,181,80,203,120,181.3C160,160,200,96,240,96C280,96,320,160,360,176C400,192,440,160,480,133.3C520,107,560,85,600,96C640,107,680,149,720,176C760,203,800,213,840,202.7C880,192,920,160,960,149.3C1000,139,1040,149,1080,133.3C1120,117,1160,75,1200,58.7C1240,43,1280,53,1320,53.3C1360,53,1400,43,1420,37.3L1440,32L1440,320L1420,320C1400,320,1360,320,1320,320C1280,320,1240,320,1200,320C1160,320,1120,320,1080,320C1040,320,1000,320,960,320C920,320,880,320,840,320C800,320,760,320,720,320C680,320,640,320,600,320C560,320,520,320,480,320C440,320,400,320,360,320C320,320,280,320,240,320C200,320,160,320,120,320C80,320,40,320,20,320L0,320Z"></path></svg>